<svg xmlns="http://www.w3.org/2000/svg" version="1.1" xmlns:xlink="http://www.w3.org/1999/xlink" xmlns:svgjs="http://svgjs.dev/svgjs" width="1500" height="227" viewBox="0 0 1500 227"><g transform="matrix(1,0,0,1,-0.9090909090909918,-0.9249546532731472)"><svg viewBox="0 0 396 60" data-background-color="#ffffff" preserveAspectRatio="xMidYMid meet" height="227" width="1500" xmlns="http://www.w3.org/2000/svg" xmlns:xlink="http://www.w3.org/1999/xlink"><g id="tight-bounds" transform="matrix(1,0,0,1,0.2400000000000091,0.24448140615149327)"><svg viewBox="0 0 395.52 59.51103718769702" height="59.51103718769702" width="395.52"><g><svg viewBox="0 0 409.7906988556213 61.65824615384616" height="59.51103718769702" width="395.52"><g><svg viewBox="0 0 409.7906988556213 61.65824615384616" height="61.65824615384616" width="409.7906988556213"><g id="textblocktransform"><svg viewBox="0 0 409.7906988556213 61.65824615384616" height="61.65824615384616" width="409.7906988556213" id="textblock"><g><svg viewBox="0 0 409.7906988556213 61.65824615384616" height="61.65824615384616" width="409.7906988556213"><g><svg><g></g><g></g></svg></g><g><svg><g><svg></svg></g><g></g></svg></g><g id="text-0"><svg viewBox="0 0 409.7906988556213 61.65824615384616" height="61.65824615384616" width="409.7906988556213"><g transform="matrix(1,0,0,1,0,11.590995986622076)"><svg width="127.45625" viewBox="1.09375 -36.75757568307199 127.44624999999999 37.168825683071994" height="37.16880341880342" data-palette-color="#6366f1"><path d="M26.15-33.9Q26.15-33.65 26.08-32.6 26-31.55 26-30L26-30Q26-28.6 26.15-26.2L26.15-26.2Q26.15-24.85 24.4-24.85L24.4-24.85 15.6-24.85 15.5-19.7Q15.45-18.85 15.45-15.45L15.45-15.45Q15.45-11.95 15.5-8.65 15.55-5.35 15.55-2.95L15.55-2.95 15.6-0.9 15.6-0.65Q15.6-0.2 15.48-0.1 15.35 0 15.15 0 14.95 0 14.85 0L14.85 0 11.45 0Q10.85 0 10.75-0.2 10.65-0.4 10.65-0.93 10.65-1.45 10.65-1.7L10.65-1.7 10.85-7.9Q11.15-16 11.15-18.3L11.15-18.3Q11.15-19.6 11.05-22.2L11.05-22.2 11-24.85Q7.4-24.85 3.7-24.75L3.7-24.75 2.15-24.7Q1.5-24.7 1.25-25.05 1-25.4 1.15-25.85L1.15-25.85 1.2-27.1Q1.3-30 1.3-32.45L1.3-32.45Q1.3-33.65 1.25-33.9L1.25-33.9 1.25-34.25Q1.25-34.8 1.48-34.9 1.7-35 2.15-35L2.15-35 7.1-35 9.9-35.05Q12.5-35.15 13.55-35.15L13.55-35.15 16.55-35.1Q20.15-35 22.2-35L22.2-35Q23.7-35 24.15-35.05L24.15-35.05Q25.25-35.1 25.7-34.73 26.15-34.35 26.15-33.9L26.15-33.9ZM39.7-21.5L41.85-21.45Q42.9-21.45 43.8-21.55L43.8-21.55Q44.1-21.6 44.75-21.6L44.75-21.6Q45.45-21.6 45.8-21.55L45.8-21.55 46.95-21.45 47.1-22.95 47.25-25.35 47.35-30.25 47.45-34.1Q47.5-34.85 47.65-35.1 47.8-35.35 48.35-35.4L48.35-35.4Q48.85-35.4 51.15-35.7L51.15-35.7Q51.55-35.75 52.6-35.75L52.6-35.75Q54.2-35.75 55.25-35.6L55.25-35.6Q55.8-35.5 55.92-35.38 56.05-35.25 56.07-34.95 56.1-34.65 56.15-34.4L56.15-34.4Q56.15-33.6 56-31.7L56-31.7Q55.8-28.2 55.8-26.9L55.8-26.9Q55.8-26.25 55.5-22.75L55.5-22.75Q55.2-18.95 55.2-17.8L55.2-17.8 55.3-7.9Q55.3-2.3 55.5-1.05L55.5-1.05 55.5-0.95Q55.5-0.4 55.3-0.28 55.1-0.15 54.85-0.18 54.6-0.2 54.5-0.2L54.5-0.2Q54.1-0.3 53.5-0.3L53.5-0.3Q53.3-0.3 52.2-0.2L52.2-0.2Q50.8-0.05 47.7-0.05L47.7-0.05 47.6-0.05Q46.9-0.05 46.9-0.5L46.9-0.5Q46.9-1.45 46.87-4.25 46.85-7.05 46.7-8.35L46.7-8.35Q46.6-10.25 46.6-12.05L46.6-12.05Q46.55-12.8 46.55-14.35L46.55-14.35 45.1-14.35 42.95-14.3 42.05-14.25 41.05-14.3Q40.3-14.3 39.85-14.35L39.85-14.35 39.7-11.2Q39.55-9.45 39.55-6.65L39.55-6.65 39.55-4.1Q39.55-1.4 39.65-0.85L39.65-0.85Q39.75-0.25 39.47-0.13 39.2 0 38.82 0 38.45 0 38.3 0L38.3 0Q37.9-0.05 36.95-0.13 36-0.2 35.4-0.2L35.4-0.2 33.95-0.1Q33.6-0.05 31.35 0.1L31.35 0.1Q30.2 0.25 30.2-1.3L30.2-1.3 30.25-3.25 30.35-6.85Q30.35-7.95 30.4-8.9L30.4-8.9 30.45-14.7Q30.45-16.7 30.4-17.25L30.4-17.25Q30.25-18.4 30.25-20.25L30.25-20.25 30.3-23.3Q30.35-24.05 30.35-25.25L30.35-25.25Q30.35-26.65 30.65-31.05L30.65-31.05 30.8-34.5Q30.8-34.9 30.95-35.05 31.1-35.2 31.4-35.2L31.4-35.2 32.05-35.15Q32.7-35.05 33.75-35 34.8-34.95 35.8-34.95L35.8-34.95 38.1-35Q38.65-35.05 39.35-35.05L39.35-35.05 39.4-35.05Q39.8-35.05 39.8-34.5L39.8-34.5Q39.85-34.4 39.87-32.52 39.9-30.65 39.9-28.1L39.9-28.1Q39.9-26.5 39.8-23.8L39.8-23.8 39.7-21.5ZM63.65-35.25Q64.3-35.2 64.92-35.23 65.55-35.25 66-35.25L66-35.25Q67.09-35.25 67.59-35.2L67.59-35.2Q68.2-35.15 68.45-34.95 68.7-34.75 68.7-34.4L68.7-34.4Q68.7-34.15 68.65-33.85 68.59-33.55 68.55-33.3L68.55-33.3Q68-29.05 67.95-24.55L67.95-24.55Q67.9-23.25 67.9-20.55L67.9-20.55 67.95-14.5Q68-13.75 68-12.95L68-12.95 68.05-10.95Q68.15-8.35 68.15-7.1L68.15-7.1Q68.15-6.15 68.09-5.95L68.09-5.95Q68.05-5.75 68.05-4.8L68.05-4.8 68.09-2.05Q68.15-1.45 68.15-0.55L68.15-0.55Q68.2 0.1 67.77 0.28 67.34 0.45 66.65 0.4L66.65 0.4 62.1 0.4Q61.35 0.45 61.15 0.08 60.95-0.3 60.9-1.15L60.9-1.15Q60.8-1.5 61-3L61-3Q61.2-4.4 61.2-5.4L61.2-5.4Q61.2-5.75 61.55-12.15L61.55-12.15Q61.85-16.85 61.85-17.3L61.85-17.3 61.95-22.2 62.05-26.75 62.15-29.45 62.25-31.25 62.25-33.35Q62.25-35.3 63.25-35.3L63.25-35.3Q63.5-35.3 63.65-35.25L63.65-35.25ZM88.29-31.15Q88.29-34.25 88.34-35L88.34-35Q88.34-35.95 88.99-36.15 89.64-36.35 90.89-36.35L90.89-36.35Q91.99-36.35 93.72-36.48 95.44-36.6 96.39-36.75L96.39-36.75Q97.09-36.8 97.39-36.52 97.69-36.25 97.69-35.6L97.69-35.6Q97.69-35.4 97.59-34.5L97.59-34.5Q97.49-33.75 97.49-24.55L97.49-24.55 97.49-13.25Q97.49-10.7 97.57-7.63 97.64-4.55 97.74-2.1 97.84 0.35 97.84-0.75L97.84-0.75Q97.84 0.05 97.04 0.05L97.04 0.05Q96.69 0.05 96.44 0L96.44 0Q96.24-0.05 95.64-0.05L95.64-0.05Q95.04-0.05 93.74 0.05L93.74 0.05Q92.34 0.15 91.79 0.15L91.79 0.15Q90.84 0.15 90.37-0.25 89.89-0.65 89.39-1.7L89.39-1.7 88.54-3.4Q87.04-6.75 85.89-8.65L85.89-8.65Q85.24-9.75 82.59-14.7L82.59-14.7 80.39-18.85 80.39-16.95 80.39-15.8Q80.39-15.4 80.37-14.8 80.34-14.2 80.39-13.45L80.39-13.45Q80.39-10.85 80.47-6.65 80.54-2.45 80.69-1.6L80.69-1.6Q80.74-1.35 80.74-1L80.74-1Q80.74-0.5 80.54-0.38 80.34-0.25 79.79-0.3L79.79-0.3Q78.99-0.3 77.92-0.2 76.84-0.1 75.89 0L75.89 0Q75.14 0.1 74.92-0.25 74.69-0.6 74.74-1.8L74.74-1.8Q74.74-3.6 74.59-8.15L74.59-8.15Q74.39-12.9 74.34-16.4L74.34-16.4Q74.34-19.95 74.49-23.6L74.49-23.6Q74.59-28.2 74.59-29.9L74.59-29.9Q74.59-32.2 74.44-33.25L74.44-33.25Q74.34-34.15 74.34-34.4L74.34-34.4Q74.34-35.3 74.64-35.63 74.94-35.95 75.44-35.95L75.44-35.95Q75.69-35.95 76.44-35.93 77.19-35.9 78.59-36.25L78.59-36.25Q79.14-36.35 79.69-36.35L79.69-36.35Q79.99-36.35 80.54-36.3 81.09-36.25 81.99-36.25L81.99-36.25Q83.14-36.25 83.92-35.35 84.69-34.45 85.59-32.8L85.59-32.8 86.09-31.9Q86.69-30.8 87.54-29.55L87.54-29.55 88.29-28.4 88.29-31.15ZM105.19-34.6L110.89-34.55Q111.39-34.55 111.54-34.38 111.69-34.2 111.69-33.85L111.69-33.85Q111.69-33.65 111.72-33.13 111.74-32.6 111.74-31.4L111.74-31.4Q111.74-30.95 111.64-29.9 111.54-28.85 111.49-28.15L111.49-28.15Q111.19-25.35 111.19-24.5L111.19-24.5 111.19-21.2Q111.19-19.85 111.24-19.1L111.24-19.1Q111.94-19.85 112.44-20.6L112.44-20.6 114.29-23Q115.49-24.55 117.14-26.85 118.79-29.15 119.69-30.45L119.69-30.45Q119.74-30.5 120.64-31.65L120.64-31.65Q120.79-31.85 121.59-32.83 122.39-33.8 122.54-34.3L122.54-34.3Q122.69-34.75 122.97-34.85 123.24-34.95 123.54-34.98 123.84-35 123.99-35L123.99-35Q124.54-35 125.09-35.05 125.64-35.1 126.09-35.15L126.09-35.15 126.29-35.15Q127.19-35.15 127.19-34.8L127.19-34.8Q127.19-34.6 126.97-34.38 126.74-34.15 126.69-34.1L126.69-34.1Q125.94-33.25 124.44-31.43 122.94-29.6 121.84-28.2L121.84-28.2Q120.69-26.55 118.62-23.75 116.54-20.95 116.04-20.35L116.04-20.35Q115.54-19.75 114.52-18.05 113.49-16.35 113.49-16.15L113.49-16.15Q113.49-15.9 113.97-15.45 114.44-15 114.79-14.65L114.79-14.65Q115.24-14.1 116.54-12.73 117.84-11.35 118.59-10.6L118.59-10.6 119.64-9.45Q122.64-6.05 123.84-5L123.84-5Q125.14-3.8 126.67-2.18 128.19-0.55 128.44-0.3L128.44-0.3 128.54-0.1Q128.54 0.1 128.22 0.23 127.89 0.35 127.54 0.25L127.54 0.25 125.94 0.3 123.39 0.4Q122.14 0.45 121.44-0.15L121.44-0.15Q121.29-0.3 120.72-0.85 120.14-1.4 119.59-2L119.59-2Q118.09-3.6 116.14-5.55L116.14-5.55Q115.59-6.1 114.84-6.7L114.84-6.7 113.29-8.1 111.39-9.7 111.39-5.5Q111.39-4.4 111.54-2.95L111.54-2.95 111.64-0.7Q111.64-0.2 111.44-0.1 111.24 0 111.02 0 110.79 0 110.69 0L110.69 0 109.69-0.05 108.04-0.15 105.84-0.05 104.19 0Q103.84 0 103.77-0.2 103.69-0.4 103.69-1.15L103.69-1.15 103.64-13.4 103.64-18.1Q103.64-24.05 103.54-25.15L103.54-25.15Q103.49-25.75 103.49-27.05L103.49-27.05 103.54-30.35 103.59-34.3Q103.59-34.75 104.09-34.75L104.09-34.75Q104.39-34.75 104.67-34.68 104.94-34.6 105.19-34.6L105.19-34.6Z" opacity="1" transform="matrix(1,0,0,1,0,0)" fill="#6366f1" class="undefined-yy-0"></path></svg></g><g><svg xmlns="http://www.w3.org/2000/svg" xmlns:xlink="http://www.w3.org/1999/xlink" version="1.1" x="142.01338846153845" y="0" viewBox="4.769000000000002 3 22.230999999999998 26" enable-background="new 0 0 32 32" xml:space="preserve" height="61.65824615384616" width="52.72017193254438" class="icon-cg-0" data-fill-palette-color="accent" id="cg-0"><g fill="#6366f1" data-fill-palette-color="accent"><g fill="#6366f1" data-fill-palette-color="accent"><path d="M16.667 3c-5.4 0-9.743 3.868-10.312 9.101l-1.586 7.566H7.18c0.159 0.207 0.321 0.401 0.487 0.587v1.079c0 2.022 1.645 3.667 3.667 3.667H13v4h10v-7.508c2.514-1.955 4-4.966 4-8.159C27 7.636 22.364 3 16.667 3zM21.427 20.167L21 20.466V27h-6v-4h-3.667c-0.919 0-1.667-0.748-1.667-1.667v-1.882L9.381 19.16c-0.305-0.312-0.591-0.66-0.876-1.067l-0.298-0.426H7.23l1.097-5.253C8.798 8.118 12.305 5 16.667 5 21.262 5 25 8.738 25 13.333 25 16.05 23.665 18.604 21.427 20.167z" fill="#6366f1" data-fill-palette-color="accent"></path><path d="M19.382 11.692l1.735-1.489-1.303-1.518-1.926 1.653c-0.28-0.146-0.574-0.264-0.888-0.338V8h-2v2.07c-0.267 0.08-0.519 0.186-0.758 0.318l-1.651-1.651-1.414 1.414 1.62 1.62c-0.188 0.311-0.332 0.647-0.428 1.006h-2.258v2h2.261c0.154 0.566 0.422 1.099 0.813 1.546v0.344c0 1.221 0.751 2.267 1.815 2.705V21h2v-1.559c1.178-0.379 2.038-1.472 2.038-2.774v-0.344c0.391-0.447 0.659-0.979 0.813-1.546H22v-2h-2.146C19.749 12.389 19.594 12.022 19.382 11.692zM17.369 15.172l-0.332 0.298v1.197c0 0.511-0.416 0.927-0.926 0.927s-0.926-0.416-0.926-0.927V15.47l-0.332-0.298c-0.407-0.365-0.631-0.86-0.631-1.395 0-1.041 0.847-1.889 1.889-1.889S18 12.736 18 13.777C18 14.312 17.776 14.807 17.369 15.172z" fill="#6366f1" data-fill-palette-color="accent"></path></g></g></svg></g><g transform="matrix(1,0,0,1,209.29069885562132,11.95955785953177)"><svg width="200.50000000000003" viewBox="1.05 -36.38912895616001 200.48999999999998 37.73912895616001" height="37.739130434782616" data-palette-color="#6366f1"><path d="M28.5-1Q28.75-0.5 28.75-0.35L28.75-0.35Q28.75 0.05 27.85 0.05L27.85 0.05 24.25 0.05Q24.05 0.05 23.85-0.3 23.65-0.65 23.5-1 23.35-1.35 23.25-1.6L23.25-1.6Q23-2.1 22.33-3.9 21.65-5.7 21.3-6.75L21.3-6.75Q21.15-7.25 20.7-8.22 20.25-9.2 20.05-9.6L20.05-9.6Q19.85-10.2 19.68-10.4 19.5-10.6 19.15-10.6L19.15-10.6Q18.8-10.6 18.28-10.55 17.75-10.5 17.15-10.45L17.15-10.45Q16.75-10.35 14.65-10.35L14.65-10.35Q13.2-10.35 11.8-10.25L11.8-10.25Q11.35-10.2 10.2-10.2L10.2-10.2 7.55-10.25Q7.3-10.25 7.18-10.05 7.05-9.85 7-9.58 6.95-9.3 6.9-9.15L6.9-9.15 6.6-7.9Q6.45-7.2 6.23-6.28 6-5.35 5.85-4.55L5.85-4.55 5.3-2.4 4.9-0.95Q4.75-0.35 4.63-0.18 4.5 0 4.25 0L4.25 0 1.3 0Q1.05 0 1.05-0.2L1.05-0.2Q1.05-0.3 1.25-0.9L1.25-0.9Q1.65-1.85 1.95-2.8L1.95-2.8Q3.8-9 4.15-10.9L4.15-10.9Q4.6-13.4 6-17.35L6-17.35Q6.45-19.05 6.85-20.45L6.85-20.45Q7-21.15 7.3-22.15L7.3-22.15Q8.25-25.65 9.2-28.7L9.2-28.7 10.45-32.7Q10.85-34.25 11.45-35.9L11.45-35.9Q11.75-36.65 12.15-36.25L12.15-36.25Q12.45-36.05 12.6-35.55 12.75-35.05 12.8-34.85L12.8-34.85Q12.95-34.25 15.45-28.85L15.45-28.85Q16.45-26.8 17.6-23.5L17.6-23.5Q18.1-22.05 20.35-17.25L20.35-17.25Q21.5-14.9 21.85-14L21.85-14Q22.65-12.25 26.15-5.5L26.15-5.5 26.75-4.25Q27.9-1.7 28.5-1L28.5-1ZM15.4-17.5Q15.75-17.55 16-17.55 16.25-17.55 16.4-17.6 16.55-17.65 16.55-17.75L16.55-17.75Q16.55-17.85 16.4-18.15L16.4-18.15Q16.15-18.6 15.25-20.68 14.35-22.75 14-23.8L14-23.8Q13.5-25 13.23-25.8 12.95-26.6 12.8-26.9L12.8-26.9Q12.7-27.15 12.58-27.4 12.45-27.65 12.35-27.8 12.25-27.95 12.15-27.95L12.15-27.95Q12-27.95 11.83-27.2 11.65-26.45 11.55-26.05L11.55-26.05Q10.65-23.15 10.25-21.65L10.25-21.65Q10.05-20.9 9.68-19.83 9.3-18.75 9.15-18.35L9.15-18.35Q9-17.85 9-17.55L9-17.55Q9-17.25 9.45-17.25L9.45-17.25Q10.5-17.25 12.68-17.32 14.85-17.4 15.4-17.5L15.4-17.5ZM43.8-36Q47.9-36 50-34.52 52.1-33.05 52.92-31.83 53.75-30.6 53.95-30.3L53.95-30.3Q54.45-29.65 54.45-29.3L54.45-29.3Q54.45-29 54.25-28.8 54.05-28.6 53.75-28.45 53.45-28.3 53.35-28.2L53.35-28.2Q52.75-27.8 51.75-26.95L51.75-26.95Q51.3-26.6 50.42-25.93 49.55-25.25 49.25-25.1L49.25-25.1Q49.05-24.95 48.85-24.95L48.85-24.95Q48.5-24.95 48.2-25.35 47.9-25.75 47.8-25.9L47.8-25.9Q47.7-26.05 47.27-26.55 46.85-27.05 46.2-27.4 45.55-27.75 44.75-27.75L44.75-27.75Q43.25-27.75 42.4-25.8 41.55-23.85 41.55-18.85L41.55-18.85Q41.55-15.55 42.1-13.45 42.65-11.35 43.42-10.43 44.2-9.5 44.9-9.5L44.9-9.5Q45.9-9.5 46.42-9.95 46.95-10.4 47.35-11.65L47.35-11.65Q47.75-12.85 48.65-12.85L48.65-12.85Q48.95-12.85 49.32-12.75 49.7-12.65 49.9-12.6L49.9-12.6Q50.4-12.4 52.35-11.98 54.3-11.55 55.7-11.3L55.7-11.3Q56.4-11.15 56.4-10.1L56.4-10.1Q56.4-9.6 56.35-9.35L56.35-9.35Q56.3-8.7 55.95-7.6L55.95-7.6Q54.9-4.4 52.37-1.83 49.85 0.75 44.85 0.75L44.85 0.75Q41.8 0.75 38.7-1.1 35.6-2.95 33.45-7.28 31.3-11.6 31.3-18.65L31.3-18.65Q31.3-28.65 35.15-32.33 39-36 43.8-36L43.8-36ZM86.4-1Q86.65-0.5 86.65-0.35L86.65-0.35Q86.65 0.05 85.75 0.05L85.75 0.05 82.15 0.05Q81.95 0.05 81.75-0.3 81.55-0.65 81.4-1 81.25-1.35 81.15-1.6L81.15-1.6Q80.9-2.1 80.22-3.9 79.55-5.7 79.2-6.75L79.2-6.75Q79.05-7.25 78.6-8.22 78.15-9.2 77.95-9.6L77.95-9.6Q77.75-10.2 77.57-10.4 77.4-10.6 77.05-10.6L77.05-10.6Q76.7-10.6 76.17-10.55 75.65-10.5 75.05-10.45L75.05-10.45Q74.65-10.35 72.55-10.35L72.55-10.35Q71.1-10.35 69.7-10.25L69.7-10.25Q69.25-10.2 68.1-10.2L68.1-10.2 65.45-10.25Q65.2-10.25 65.07-10.05 64.95-9.85 64.9-9.58 64.85-9.3 64.8-9.15L64.8-9.15 64.5-7.9Q64.35-7.2 64.12-6.28 63.9-5.35 63.75-4.55L63.75-4.55 63.2-2.4 62.8-0.95Q62.65-0.35 62.52-0.18 62.4 0 62.15 0L62.15 0 59.2 0Q58.95 0 58.95-0.2L58.95-0.2Q58.95-0.3 59.15-0.9L59.15-0.9Q59.55-1.85 59.85-2.8L59.85-2.8Q61.7-9 62.05-10.9L62.05-10.9Q62.5-13.4 63.9-17.35L63.9-17.35Q64.35-19.05 64.75-20.45L64.75-20.45Q64.9-21.15 65.2-22.15L65.2-22.15Q66.15-25.65 67.1-28.7L67.1-28.7 68.35-32.7Q68.75-34.25 69.35-35.9L69.35-35.9Q69.65-36.65 70.05-36.25L70.05-36.25Q70.35-36.05 70.5-35.55 70.65-35.05 70.7-34.85L70.7-34.85Q70.85-34.25 73.35-28.85L73.35-28.85Q74.35-26.8 75.5-23.5L75.5-23.5Q76-22.05 78.25-17.25L78.25-17.25Q79.4-14.9 79.75-14L79.75-14Q80.55-12.25 84.05-5.5L84.05-5.5 84.65-4.25Q85.8-1.7 86.4-1L86.4-1ZM73.3-17.5Q73.65-17.55 73.9-17.55 74.15-17.55 74.3-17.6 74.45-17.65 74.45-17.75L74.45-17.75Q74.45-17.85 74.3-18.15L74.3-18.15Q74.05-18.6 73.15-20.68 72.25-22.75 71.9-23.8L71.9-23.8Q71.4-25 71.12-25.8 70.85-26.6 70.7-26.9L70.7-26.9Q70.6-27.15 70.47-27.4 70.35-27.65 70.25-27.8 70.15-27.95 70.05-27.95L70.05-27.95Q69.9-27.95 69.72-27.2 69.55-26.45 69.45-26.05L69.45-26.05Q68.55-23.15 68.15-21.65L68.15-21.65Q67.95-20.9 67.57-19.83 67.2-18.75 67.05-18.35L67.05-18.35Q66.9-17.85 66.9-17.55L66.9-17.55Q66.9-17.25 67.35-17.25L67.35-17.25Q68.4-17.25 70.57-17.32 72.75-17.4 73.3-17.5L73.3-17.5ZM108.99-30.7Q111.94-28.1 112.89-24.53 113.84-20.95 113.84-16.65L113.84-16.65Q113.84-14.4 113.09-11.6 112.34-8.8 111.02-6.4 109.69-4 107.94-2.85L107.94-2.85Q105.54-1.3 101.99-0.68 98.44-0.05 96.39-0.05L96.39-0.05 91.29-0.05Q90.74-0.05 90.59-0.3 90.44-0.55 90.59-0.85L90.59-0.85Q90.64-1 90.64-1.25L90.64-1.25Q90.64-1.45 90.62-1.78 90.59-2.1 90.59-2.7L90.59-2.7Q90.59-4.35 90.54-5.95L90.54-5.95 90.44-15 90.49-25.05Q90.49-26.35 90.44-27.58 90.39-28.8 90.34-29.7L90.34-29.7 90.24-32.85Q90.29-34 90.39-34.45 90.49-34.9 90.79-34.9L90.79-34.9 90.94-34.9Q91.14-34.9 91.39-34.83 91.64-34.75 91.84-34.75L91.84-34.75Q92.24-34.75 92.82-34.8 93.39-34.85 93.99-34.85L93.99-34.85 95.94-34.8Q98.74-34.8 100.99-34.55L100.99-34.55Q101.19-34.55 102.32-34.45 103.44-34.35 105.22-33.4 106.99-32.45 108.99-30.7L108.99-30.7ZM98.84-1.95Q102.29-1.75 105.14-3.2L105.14-3.2Q107.89-4.6 109.69-7.85 111.49-11.1 111.49-16.65L111.49-16.65Q111.49-22.15 109.72-25.48 107.94-28.8 105.24-30.45L105.24-30.45Q102.49-32.1 98.99-32.15L98.99-32.15 98.79-27.6Q98.64-25.15 98.64-20.85L98.64-20.85Q98.64-20.45 98.79-16.4L98.79-16.4Q98.94-14.7 98.94-13.2L98.94-13.2 98.89-6.75Q98.84-5.25 98.84-1.95L98.84-1.95ZM139.74-33.25L139.74-32.7Q139.74-31.55 139.54-31.55L139.54-31.55Q139.24-31.55 138.87-31.63 138.49-31.7 137.94-31.7L137.94-31.7 129.94-31.7 123.74-31.75Q123.44-31.75 121.49-31.6L121.49-31.6 120.34-31.5 120.24-30.15Q120.19-29.4 120.19-27.8L120.19-27.8Q120.19-27 120.29-25.7L120.29-25.7Q120.39-24.5 120.39-23.95L120.39-23.95 120.39-21.95Q120.39-21.15 120.44-20.7L120.44-20.7Q120.89-20.65 121.79-20.65L121.79-20.65 123.79-20.65Q124.09-20.65 124.99-20.75L124.99-20.75Q126.29-20.85 127.24-20.85L127.24-20.85Q127.64-20.85 130.04-20.7L130.04-20.7 131.14-20.65Q131.54-20.65 132.29-20.73 133.04-20.8 133.74-20.8L133.74-20.8 135.39-20.75Q136.69-20.65 137.19-20.65L137.19-20.65Q137.74-20.65 137.94-20.7L137.94-20.7 138.24-20.75Q138.59-20.75 138.74-20.53 138.89-20.3 138.84-20.1L138.84-20.1Q138.79-19.75 138.79-19.23 138.79-18.7 138.74-18.3L138.74-18.3Q138.69-17.9 138.59-17.82 138.49-17.75 137.99-17.75L137.99-17.75 135.99-17.95Q132.24-18.3 131.09-18.3L131.09-18.3Q126.84-18.3 124.84-18.15L124.84-18.15Q124.04-18.05 123.09-18.05 122.14-18.05 121.89-18.05L121.89-18.05Q120.94-18.05 120.49-18.1L120.49-18.1 120.34-17.3Q120.24-16.4 120.24-15.7L120.24-15.7Q120.24-15.1 120.34-14.3L120.34-14.3Q120.44-13.5 120.44-12.9L120.44-12.9 120.49-6.95 120.44-4.45Q120.39-4 120.39-3.2L120.39-3.2Q121.04-3.15 122.29-3.15L122.29-3.15Q123.34-3.1 125.54-3.1L125.54-3.1 128.24-3.05Q129.09-3 130.84-3L130.84-3Q131.89-3 133.59-3.1L133.59-3.1 135.69-3.15Q136.89-3.15 137.69-3.1 138.49-3.05 138.89-3.05L138.89-3.05Q139.29-3.05 139.37-2.9 139.44-2.75 139.44-2.25L139.44-2.25Q139.44-1.9 139.39-1.53 139.34-1.15 139.34-0.7L139.34-0.7Q139.34-0.35 139.09-0.23 138.84-0.1 138.29-0.1L138.29-0.1Q137.74-0.1 137.39-0.15L137.39-0.15Q136.04-0.3 131.94-0.3L131.94-0.3Q129.44-0.3 128.34-0.25L128.34-0.25Q127.49-0.2 125.54-0.2L125.54-0.2 120.89-0.25Q120.09-0.3 118.99-0.3L118.99-0.3Q118.29-0.3 118.07-0.48 117.84-0.65 117.84-1.05L117.84-1.05 117.89-1.85Q117.94-2.05 117.94-2.3L117.94-2.3Q117.94-2.45 117.89-3.03 117.84-3.6 117.84-5.15L117.84-5.15Q117.84-6.65 117.74-10.05L117.74-10.05Q117.59-12.85 117.59-15.45L117.59-15.45Q117.59-16.55 117.84-21.8L117.84-21.8Q117.89-22.85 117.94-23.9 117.99-24.95 117.99-25.8L117.99-25.8Q117.99-31.6 117.84-33.45L117.84-33.45Q117.69-34.65 119.29-34.65L119.29-34.65Q119.69-34.65 120.59-34.55L120.59-34.55Q121.39-34.45 121.79-34.45L121.79-34.45 124.94-34.55Q128.34-34.75 130.19-34.75L130.19-34.75Q132.34-34.75 136.24-34.65L136.24-34.65Q137.49-34.6 138.89-34.6L138.89-34.6Q139.49-34.6 139.64-34.3 139.79-34 139.77-33.68 139.74-33.35 139.74-33.25L139.74-33.25ZM148.19-33.7Q148.29-32.55 148.66-31.2 149.04-29.85 149.74-27.7L149.74-27.7Q150.24-26.15 152.31-20.75 154.39-15.35 155.09-13.8L155.09-13.8Q155.74-12.15 156.84-8.75L156.84-8.75 157.94-5.35 158.59-6.5 159.99-9.25Q160.29-9.95 161.84-12.9L161.84-12.9Q165.09-18.95 166.09-21.3L166.09-21.3Q166.84-23.05 168.24-26L168.24-26Q168.59-26.8 169.11-27.93 169.64-29.05 169.84-29.55L169.84-29.55Q169.94-29.85 170.46-31.43 170.99-33 171.51-34.1 172.04-35.2 172.39-35.2L172.39-35.2Q172.79-35.2 172.79-34.05L172.79-34.05Q172.79-33.4 172.74-32.77 172.69-32.15 172.64-31.65L172.64-31.65 172.49-29.85Q172.34-27.25 172.34-20.25L172.34-20.25Q172.34-17.8 172.26-14.03 172.19-10.25 172.09-8.95L172.09-8.95 172.04-0.8 172.04-0.65Q172.04-0.15 171.49-0.15L171.49-0.15Q170.14-0.15 169.74-0.2L169.74-0.2Q169.49-0.25 169.49-0.6L169.49-0.6 169.54-1.45Q169.54-3.6 169.64-8.47 169.74-13.35 169.89-14.95L169.89-14.95Q169.94-16.15 169.94-20L169.94-20Q169.94-22.1 169.89-23.2L169.89-23.2Q168.84-21.35 168.64-20.9L168.64-20.9Q168.24-20.2 167.49-18.7L167.49-18.7Q167.34-18.4 167.14-18 166.94-17.6 166.69-17.2L166.69-17.2Q166.04-15.9 163.79-11.35L163.79-11.35 162.19-8.05Q161.69-7.2 160.54-4.95 159.39-2.7 158.99-1.9L158.99-1.9 158.19-0.3Q157.89 0.35 157.46 0.85 157.04 1.35 156.74 1.35L156.74 1.35Q156.44 1.35 156.31 1.2 156.19 1.05 156.09 0.73 155.99 0.4 155.94 0.25L155.94 0.25Q155.84-0.05 154.84-2.93 153.84-5.8 153.29-7.05L153.29-7.05Q152.59-8.75 151.49-11.5 150.39-14.25 150.04-15.45L150.04-15.45Q149.59-16.7 149.24-17.85L149.24-17.85 148.49-20.2Q147.54-23 147.39-23.55L147.39-23.55 147.29-21.7Q147.24-20.65 147.24-18.5L147.24-18.5Q147.24-11.4 147.04-8.6L147.04-8.6Q146.99-7.9 146.99-5.75L146.99-5.75 147.04-0.7 147.04-0.55Q147.04 0.35 146.34 0.25L146.34 0.25Q146.09 0.15 145.54 0.15 144.99 0.15 144.74 0.15L144.74 0.15Q144.49 0.15 144.49-0.2L144.49-0.2 144.54-1.1 144.44-5.9 144.29-16.35Q144.29-18.9 144.39-22.48 144.49-26.05 144.59-27.3L144.59-27.3Q144.74-28.95 144.81-30.93 144.89-32.9 144.89-34.15L144.89-34.15 144.89-34.35Q144.89-35 145.04-35.08 145.19-35.15 145.54-35.1L145.54-35.1 145.94-35.1Q146.74-35.1 147.19-35.15L147.19-35.15Q148.04-35.15 148.19-33.7L148.19-33.7ZM182.09-33.4L183.34-29.25Q184.39-25.95 185.79-22.75L185.79-22.75Q186.44-21.25 187.19-18.95L187.19-18.95Q187.99-16.55 187.99-16.55L187.99-16.55 188.39-17.8 189.14-19.95Q189.64-21.45 190.61-24.03 191.59-26.6 191.94-27.3L191.94-27.3Q193.34-31.35 193.74-33.05L193.74-33.05Q193.99-34.05 194.39-34.3 194.79-34.55 195.16-34.52 195.54-34.5 195.64-34.5L195.64-34.5 198.34-34.55Q199.59-34.55 200.49-34.45L200.49-34.45Q201.54-34.3 201.54-33.95L201.54-33.95Q201.54-33.9 201.44-33.5L201.44-33.5Q201.34-33.25 201.21-32.88 201.09-32.5 200.94-32.05L200.94-32.05Q199.74-28.5 199.39-27.7L199.39-27.7Q198.74-25.8 197.19-22L197.19-22 195.09-16.5Q193.99-13.8 192.29-9.5 190.59-5.2 190.44-4.6L190.44-4.6Q190.24-4 190.01-2.68 189.79-1.35 189.69-0.95L189.69-0.95Q189.54-0.35 189.36-0.13 189.19 0.1 188.89 0.05L188.89 0.05 185.94 0.1 181.99 0.15Q181.34 0.15 181.34-0.15L181.34-0.15Q181.34-0.3 181.41-0.43 181.49-0.55 181.54-0.7L181.54-0.7 183.34-5.55Q183.49-6.35 184.09-7.7L184.09-7.7Q184.24-8.1 184.39-8.47 184.54-8.85 184.64-9.25L184.64-9.25Q184.74-9.55 184.94-9.95 185.14-10.35 185.19-10.63 185.24-10.9 185.14-11.15L185.14-11.15Q185.14-11.15 184.59-12.7L184.59-12.7Q183.89-14.9 183.64-15.5L183.64-15.5Q183.34-16.25 182.84-17.95L182.84-17.95Q182.49-19.1 182.19-20L182.19-20Q181.79-21 180.39-25.05 178.99-29.1 178.34-31.2L178.34-31.2Q178.04-32.1 177.74-32.75L177.74-32.75Q177.39-33.55 177.39-33.85L177.39-33.85Q177.39-34.2 177.76-34.33 178.14-34.45 178.89-34.5L178.89-34.5Q179.64-34.55 181.39-34.45L181.39-34.45Q181.79-34.4 181.89-34.25 181.99-34.1 181.99-33.88 181.99-33.65 182.09-33.4L182.09-33.4Z" opacity="1" transform="matrix(1,0,0,1,0,0)" fill="#6366f1" class="undefined-yy-1"></path></svg></g></svg></g></svg></g></svg></g></svg></g><g></g></svg></g><defs></defs></svg><rect width="395.52" height="59.51103718769702" fill="none" stroke="none" visibility="hidden"></rect></g></svg></g></svg>